<?xml version="1.0" standalone="no"?>
<!DOCTYPE svg PUBLIC "-//W3C//DTD SVG 20010904//EN"
 "http://www.w3.org/TR/2001/REC-SVG-20010904/DTD/svg10.dtd">
<svg version="1.0" xmlns="http://www.w3.org/2000/svg"
 width="256.000000pt" height="248.000000pt" viewBox="0 0 256.000000 248.000000"
 preserveAspectRatio="xMidYMid meet">

<g transform="translate(0.000000,248.000000) scale(0.100000,-0.100000)"
fill="#000000" stroke="none">
<path d="M1863 2104 c-48 -17 -114 -77 -139 -125 -9 -18 -19 -64 -23 -103 l-6
-70 -158 -78 -158 -78 -32 24 c-51 39 -105 58 -166 57 -100 0 -185 -55 -227
-146 -78 -167 44 -354 231 -355 l60 0 72 -110 c40 -61 73 -116 73 -124 0 -7
-7 -19 -16 -27 -28 -23 -54 -88 -58 -146 l-4 -58 -229 -38 c-148 -24 -229 -34
-231 -27 -2 6 -18 32 -35 58 -24 35 -48 55 -97 80 -58 30 -72 33 -125 29 -110
-8 -200 -78 -229 -178 -20 -66 -20 -82 0 -148 48 -163 242 -231 386 -134 42
28 98 106 98 135 0 10 1 18 3 18 1 1 117 20 257 44 l255 44 25 -23 c72 -66
189 -87 278 -50 52 21 124 100 140 153 51 170 -66 331 -243 332 l-60 0 -74
112 c-59 90 -71 115 -62 127 41 58 65 120 66 176 l3 60 158 81 157 81 42 -32
c110 -84 260 -67 353 39 30 35 62 117 62 161 0 44 -32 126 -62 161 -71 81
-189 113 -285 78z m173 -147 c47 -43 57 -108 25 -160 -25 -41 -58 -57 -117
-57 -120 0 -165 167 -62 230 52 32 111 27 154 -13z m-785 -370 c60 -41 77
-113 39 -174 -45 -74 -139 -83 -197 -19 -28 30 -33 43 -33 85 0 105 106 165
191 108z m386 -673 c31 -20 63 -72 63 -102 0 -65 -65 -132 -129 -132 -69 0
-131 61 -131 128 0 99 115 160 197 106z m-942 -207 c86 -86 29 -217 -93 -217
-93 0 -153 112 -103 193 26 42 53 55 115 56 42 1 52 -3 81 -32z"/>
</g>
</svg>
